<svg xmlns="http://www.w3.org/2000/svg" viewBox="0 0 512 512">
  <defs>
    <linearGradient id="bg" x1="0%" y1="0%" x2="100%" y2="100%">
      <stop offset="0%" style="stop-color:#1A1A1A"/>
      <stop offset="100%" style="stop-color:#2D2D2D"/>
    </linearGradient>
  </defs>
  <!-- 圆角背景 -->
  <rect width="512" height="512" rx="96" fill="url(#bg)"/>
  <!-- 盾牌外形 — 代表保护 -->
  <path d="M256 80 L380 140 C380 280 340 380 256 432 C172 380 132 280 132 140 Z"
        fill="none" stroke="#4CAF50" stroke-width="16" stroke-linejoin="round" opacity="0.9"/>
  <!-- 内部心形 — 代表关怀 -->
  <path d="M256 320 C220 290 180 260 180 220 C180 195 200 175 225 175 C240 175 252 185 256 192 C260 185 272 175 287 175 C312 175 332 195 332 220 C332 260 292 290 256 320Z"
        fill="#4CAF50" opacity="0.85"/>
  <!-- MB 文字 -->
  <text x="256" y="420" text-anchor="middle" font-family="system-ui, -apple-system, sans-serif"
        font-size="48" font-weight="700" fill="#FFFFFF" opacity="0.6">MindBase</text>
</svg>
